<svg xmlns="http://www.w3.org/2000/svg" width="499.007" height="112.147" viewBox="0 0 499.007 112.147"><g transform="translate(-82.91 -82)"><g transform="translate(82.91 82)"><path d="M82.91,82V194.147H195.057V82ZM192.8,191.89H85.167V84.257H192.8Z" transform="translate(-82.91 -82)" fill="#2f2869"/><path d="M94.563,159.987V158.94H82.91v1.047a55.606,55.606,0,0,0,55.545,55.543H139.5V203.877h-1.047A43.941,43.941,0,0,1,94.563,159.987Z" transform="translate(-82.91 -137.041)" fill="#2f2869"/><path d="M180.482,160.489V148.837h-1.047a27.593,27.593,0,0,1,0-55.187h1.047V82h-1.047a39.245,39.245,0,1,0,0,78.489Z" transform="translate(-123.886 -82)" fill="#212135"/><g transform="translate(55.56 33.657)"><path d="M279.157,200.25H278.11V211.9h1.047A43.943,43.943,0,0,1,323.05,255.8v1.047H334.7V255.8A55.612,55.612,0,0,0,279.157,200.25Z" transform="translate(-278.11 -200.25)" fill="#2f2869"/><path d="M279.157,200.25H278.11V211.9h1.047a27.592,27.592,0,0,1,0,55.184H278.11v11.653h1.047a39.245,39.245,0,0,0,0-78.489Z" transform="translate(-278.11 -200.25)" fill="#212135"/></g><g transform="translate(161.129 3.068)"><g transform="translate(0 86.24)"><path d="M663.426,412.964v2.994H649.01V396.74h14.029v2.994h-10.46v5h9.282v2.937h-9.282v5.3h10.847Z" transform="translate(-649.01 -396.464)" fill="#212135"/><path d="M767.342,415.958l-5.217-7.3-5.163,7.3H752.9l7.139-9.8-6.754-9.416h4.036l4.916,6.837,4.859-6.837h3.871l-6.726,9.279,7.221,9.939Z" transform="translate(-723.33 -396.464)" fill="#212135"/><path d="M886.229,397.563a6.33,6.33,0,0,1,2.844,2.362,7.219,7.219,0,0,1,0,7.289,6.3,6.3,0,0,1-2.844,2.374,10.637,10.637,0,0,1-4.352.825h-4.338v5.545H873.97V396.74h7.907A10.649,10.649,0,0,1,886.229,397.563Zm-.976,8.841a3.916,3.916,0,0,0,0-5.656,5.475,5.475,0,0,0-3.541-.988h-4.173v7.634h4.173A5.508,5.508,0,0,0,885.253,406.4Z" transform="translate(-809.94 -396.464)" fill="#212135"/><path d="M991.27,396.74h3.569v16.2h10.05v3.02H991.27Z" transform="translate(-893.853 -396.464)" fill="#212135"/><path d="M1096.252,414.262a9.461,9.461,0,0,1-3.706-3.541,10.207,10.207,0,0,1,0-10.133,9.441,9.441,0,0,1,3.706-3.541,11.628,11.628,0,0,1,10.6,0,9.471,9.471,0,0,1,3.706,3.529,10.254,10.254,0,0,1,0,10.158,9.491,9.491,0,0,1-3.706,3.529,11.617,11.617,0,0,1-10.6,0Zm8.758-2.718a6.261,6.261,0,0,0,2.417-2.417,7.3,7.3,0,0,0,0-6.945,6.281,6.281,0,0,0-2.417-2.417,7.344,7.344,0,0,0-6.917,0,6.261,6.261,0,0,0-2.417,2.417,7.316,7.316,0,0,0,0,6.945,6.279,6.279,0,0,0,2.417,2.417,7.344,7.344,0,0,0,6.917,0Z" transform="translate(-965.34 -395.77)" fill="#212135"/><path d="M1238.048,415.958l-3.925-5.627q-.248.026-.743.026h-4.341v5.6h-3.569V396.74h7.91a10.672,10.672,0,0,1,4.349.823,6.33,6.33,0,0,1,2.844,2.362,6.6,6.6,0,0,1,.99,3.652,6.5,6.5,0,0,1-1.059,3.734,6.291,6.291,0,0,1-3.034,2.334l4.423,6.313Zm-1.29-15.211a5.474,5.474,0,0,0-3.541-.988h-4.173v7.659h4.173a5.424,5.424,0,0,0,3.541-1,3.489,3.489,0,0,0,1.21-2.843A3.439,3.439,0,0,0,1236.758,400.748Z" transform="translate(-1061.392 -396.464)" fill="#212135"/><path d="M1349.865,411.509h-9.612l-1.9,4.449h-3.677l8.65-19.218h3.515l8.673,19.218h-3.731Zm-1.184-2.8-3.623-8.4-3.595,8.4Z" transform="translate(-1139.518 -396.464)" fill="#212135"/><path d="M1459.023,399.76h-6.373v-3.02h16.312v3.02h-6.373v16.2h-3.566Z" transform="translate(-1223.91 -396.464)" fill="#212135"/><path d="M1567.64,396.74h3.569v19.218h-3.569Z" transform="translate(-1306.171 -396.464)" fill="#212135"/><path d="M1646.872,414.262a9.441,9.441,0,0,1-3.706-3.541,10.207,10.207,0,0,1,0-10.133,9.421,9.421,0,0,1,3.706-3.541,11.628,11.628,0,0,1,10.6,0,9.49,9.49,0,0,1,3.706,3.529,10.254,10.254,0,0,1,0,10.158,9.51,9.51,0,0,1-3.706,3.529,11.617,11.617,0,0,1-10.6,0Zm8.758-2.718a6.26,6.26,0,0,0,2.417-2.417,7.316,7.316,0,0,0,0-6.945,6.3,6.3,0,0,0-2.417-2.417,7.344,7.344,0,0,0-6.917,0,6.24,6.24,0,0,0-2.417,2.417,7.295,7.295,0,0,0,0,6.945,6.259,6.259,0,0,0,2.417,2.417,7.343,7.343,0,0,0,6.917,0Z" transform="translate(-1359.237 -395.77)" fill="#212135"/><path d="M1793.175,396.74v19.218h-2.937l-10.6-13.013v13.013H1776.1V396.74h2.937l10.6,13.013V396.74Z" transform="translate(-1455.297 -396.464)" fill="#212135"/></g><g transform="translate(0)"><path d="M907.591,101.364H886.83V93.48h50.086v7.884H916.155v55.56h-8.564Z" transform="translate(-819.139 -93.281)" fill="#212135"/><path d="M1441.8,119.443V107.406a14.164,14.164,0,0,0-14.149-14.146H1391.84v63.507h7.953V133.8l19.13-.145h2.488a11.69,11.69,0,0,1,11.675,11.676v11.431h7.953V145.333a19.562,19.562,0,0,0-5.866-13.964A14.134,14.134,0,0,0,1441.8,119.443Zm-42-18.233h27.854a6.2,6.2,0,0,1,6.2,6.194V119.44a6.216,6.216,0,0,1-6.151,6.2l-8.812.065h-1.392v.011l-17.7.134V101.21Z" transform="translate(-1180.409 -93.123)" fill="#212135"/><path d="M681.688,156.42H665.624a16.48,16.48,0,0,1-16.614-16.306v-3.68h7.953v3.68a8.523,8.523,0,0,0,8.664,8.354h16.064a8.523,8.523,0,0,0,8.664-8.354v-.64a8.341,8.341,0,0,0-6.168-8l-23.268-6.749A16.274,16.274,0,0,1,665.63,92.78h16.064a16.48,16.48,0,0,1,16.614,16.306v2.1h-7.953v-2.1a8.523,8.523,0,0,0-8.664-8.354H665.627a8.523,8.523,0,0,0-8.664,8.354,8.341,8.341,0,0,0,6.168,8l23.268,6.749a16.442,16.442,0,0,1,11.9,15.64v.64A16.48,16.48,0,0,1,681.688,156.42Z" transform="translate(-649.01 -92.78)" fill="#212135"/><path d="M1155.7,92.79h-18.814a15.448,15.448,0,0,0-15.572,15.287V141.14a15.448,15.448,0,0,0,15.572,15.287H1155.7a15.447,15.447,0,0,0,15.569-15.287V108.077A15.445,15.445,0,0,0,1155.7,92.79Zm7.62,42.421v5.929a7.492,7.492,0,0,1-7.62,7.338h-18.814a7.491,7.491,0,0,1-7.62-7.338V108.077a7.492,7.492,0,0,1,7.62-7.338H1155.7a7.49,7.49,0,0,1,7.62,7.338v27.134Z" transform="translate(-986.88 -92.787)" fill="#212135"/><path d="M1710.535,93.26h-7.952l-17.024,47.408L1668.532,93.26h-7.953v63.5h7.953V115.4l12.854,35.789h8.342l12.854-35.789v41.365h7.952Z" transform="translate(-1372.657 -93.123)" fill="#212135"/></g></g></g></g></svg>